<mxfile host="app.diagrams.net" modified="2023-04-26T01:00:57.042Z" agent="Mozilla/5.0 (Windows NT 10.0; Win64; x64) AppleWebKit/537.36 (KHTML, like Gecko) Chrome/114.0.0.0 Safari/537.36 Edg/114.0.0.0" etag="TuNrlEX7A9XKh9aWut61" version="21.2.1" type="device">
  <diagram name="第 1 页" id="pqXVmv6UzIAOokTkVvTh">
    <mxGraphModel dx="1325" dy="582" grid="1" gridSize="10" guides="1" tooltips="1" connect="1" arrows="1" fold="1" page="1" pageScale="1" pageWidth="827" pageHeight="1169" math="0" shadow="0">
      <root>
        <mxCell id="0" />
        <mxCell id="1" parent="0" />
        <mxCell id="ICJRTh7zQSD2-4wtCsYM-1" value="开始" style="rounded=1;whiteSpace=wrap;html=1;" vertex="1" parent="1">
          <mxGeometry x="354" y="110" width="120" height="60" as="geometry" />
        </mxCell>
        <mxCell id="ICJRTh7zQSD2-4wtCsYM-2" value="" style="rhombus;whiteSpace=wrap;html=1;" vertex="1" parent="1">
          <mxGeometry x="374" y="210" width="80" height="80" as="geometry" />
        </mxCell>
      </root>
    </mxGraphModel>
  </diagram>
</mxfile>
